# xmcd
#
# Track frame offsets:
# 150
# 15499
# 32666
# 47099
# 64503
# 81095
# 94044
# 111207
# 126288
# 145635
# 166536
# 180206
#
# Disc length: 2617 seconds
#
#
# Revision: 0
# Processed by: cddbd v1.5.2PL0 Copyright (c) Steve Scherf et al.
# Submitted via: FreeRIP 2.951 
#
DISCID=860a370c
DTITLE=Dale Watson - One More Once More
DYEAR=2003
DGENRE=Country
TTITLE0=Once More
TTITLE1=You Win Again
TTITLE2=You've Got Me Now
TTITLE3=Do You
TTITLE4=So Glad You're Mine
TTITLE5=Cupid
TTITLE6=Days
TTITLE7=Monterrey
TTITLE8=San Antone
TTITLE9=Deep in The Heart
TTITLE10=Wagon
TTITLE11=Danced All Night
EXTD=
EXTT0=
EXTT1=
EXTT2=
EXTT3=
EXTT4=
EXTT5=
EXTT6=
EXTT7=
EXTT8=
EXTT9=
EXTT10=
EXTT11=
PLAYORDER=
